/* XPM */
static const char * color_paste_xpm[] = {
"16 16 5 1",
" 	c None",
".	c #000000",
"-	c #e9b080",
"+	c #aaaaaa",
"@	c #FFFFFF",
"                ",
"     ++++++     ",
"    @++++++@    ",
"  --@++++++@--  ",
"  --@@@@@@@@--  ",
"  --@......@--  ",
"  --@@@@@@@@--  ",
"  --@@....@@--  ",
"  --@@@@@@@@--  ",
"  --@......@--  ",
"  --@@@@@@@@--  ",
"  --@......@--  ",
"  --@@@@@@@@--  ",
"  ------------  ",
"  ------------  ",
"                "};
