/* XPM */
static const char * color_open_xpm[] = {
"16 16 4 1",
" 	c None",
".	c #ffa726",
"@	c #FFFFFF",
"+	c #000000",
"                ",
"  @@@@@@@@@@@@  ",
"  @@@@@@@@@@@@  ",
"  @@@@@@@@@@@@  ",
"  @@++++++++@@  ",
"  @@@@@@@@@@@@  ",
"  @@++++++++@@  ",
"  @@@@@@@@@@@@  ",
" .....@@@@@@@@  ",
" .............. ",
" .............. ",
" .............. ",
" .............. ",
" .............. ",
" .............. ",
"                "};
