/* XPM */
static const char * color_search_xpm[] = {
"16 16 3 1",
" 	c None",
".	c #2aa198",
"@	c #e9f5f4",
"     ......     ",
"   ..........   ",
"  ....@@@@....  ",
"  ...@@@@@@...  ",
"  ...@@@@@@...  ",
"  ...@@@@@@...  ",
"  ....@@@@....  ",
"   ..........   ",
"     .......    ",
"      ....      ",
"      ....      ",
"      ....      ",
"      ....      ",
"      ....      ",
"      ....      ",
"       ..       "};
