/* XPM */
static const char * color_save_xpm[] = {
"16 16 4 1",
" 	c None",
".	c #68aee0",
"@	c #e8e7e7",
"+	c #268bd2",
"                ",
"   ..........   ",
"  ............  ",
"  ....@@@@....  ",
"  ....@@@@....  ",
"  ....@@@@....  ",
"  ....@@@@....  ",
"  ....@@@@....  ",
"  ..@@@@@@@@..  ",
"  ...@@@@@@...  ",
"  ....@@@@....  ",
"  .....@@.....  ",
"  ............  ",
"  +..........+  ",
"  ++++++++++++  ",
"   ++++++++++   "};
