/* XPM */
static const char * color_new_xpm[] = {
"16 16 3 1",
" 	c None",
".	c #859900",
"@	c #FFFFFF",
"                ",
"  @@@@@@@@@@@@  ",
"  @@@@@@@@@@@@  ",
"  @@@@@@@@@@@@  ",
"  @@@@@@@@@@@@  ",
"  @@@@@@@@@@@@  ",
"  @@@@@@@@@...  ",
"  @@@@@@@@@...  ",
"  @@@@@@@@@...  ",
"  @@@@@@........",
"  @@@@@@........",
"  @@@@@@........",
"  @@@@@@@@@...  ",
"  @@@@@@@@@...  ",
"           ...  ",
"                "};
