/* XPM */
static const char * color_cut_xpm[] = {
"16 16 3 1",
" 	c None",
".	c #e8e7e7",
"-	c #969595",
"                ",
"  ..        --  ",
"  ...      ---  ",
"  ....    ----  ",
"  .....  -----  ",
"   .....-----   ",
"    .....---    ",
"     .....-     ",
"     -.....     ",
"    ---.....    ",
"  ------......  ",
" --- -- ..  ... ",
" --- --  .. ... ",
"  -----  .....  ",
"   ---    ...   ",
"                "};