/* XPM */
static const char * color_undo_xpm[] = {
"16 16 2 1",
" 	c None",
".	c #940000",
"                ",
"       .        ",
"      ..        ",
"     ...        ",
"    ........    ",
"   ..........   ",
"  ............  ",
"   ...........  ",
"    ..........  ",
"     ...   ...  ",
"      ..   ...  ",
"       .   ...  ",
"          ...   ",
"         ...    ",
"        ...     ",
"                "};
