/* XPM */
static const char * color_print_xpm[] = {
"16 16 5 1",
" 	c None",
".	c #6e797a",
"@	c #FFFFFF",
"+	c #000000",
",	c #363b3c",
"                ",
"  @@@@@@@@@@@@  ",
"  @@@@@@@@@@@@  ",
"  @@@@@@@@@@@@  ",
"  @@++++++++@@  ",
"  @@@@@@@@@@@@  ",
"  @@++++++++@@  ",
"  @@@@@@@@@@@@  ",
"  @@@@@@@@@@@@  ",
"..,,,,,,,,,,,,..",
"................",
"................",
",,,,,,,,,,,,,,,,",
",,,,,,,,,,,,,,,,",
",,,,,,,,,,,,,,,,",
"                "};
