/* XPM */
static const char * color_zoom_in_xpm[] = {
"16 16 4 1",
" 	c None",
".	c #2aa198",
"@	c #e9f5f4",
"#	c #859900",
"     ......     ",
"   .........##  ",
"  ....@@@@..##  ",
"  ...@@@########",
"  ...@@@########",
"  ...@@@@@@.##  ",
"  ....@@@@..##  ",
"   ..........   ",
"     .......    ",
"      ....      ",
"      ....      ",
"      ....      ",
"      ....      ",
"      ....      ",
"      ....      ",
"       ..       "};