/* XPM */
static const char * color_replace_xpm[] = {
"16 16 5 1",
" 	c None",
".	c #2aa198",
"@	c #e9f5f4",
"+	c #000000",
"-	c #ffffff",
"     ..-------- ",
"   ....-------- ",
"  ....@--++++-- ",
"  ...@@-------- ",
"  ...@@--++++-- ",
"  ...@@-------- ",
"  ....@-------- ",
"   ..........   ",
"     ......     ",
"      ....      ",
"      ....      ",
"      ....      ",
"      ....      ",
"      ....      ",
"      ....      ",
"       ..       "};