/* XPM */
static const char * color_copy_xpm[] = {
"16 16 4 1",
" 	c None",
".	c #000000",
"-	c #6f6969",
"@	c #FFFFFF",
"                ",
"  ----------    ",
"  ----------    ",
"  --@@@@@@@@@@  ",
"  --@@@@@@@@@@  ",
"  --@@......@@  ",
"  --@@@@@@@@@@  ",
"  --@@@....@@@  ",
"  --@@@@@@@@@@  ",
"  --@@......@@  ",
"  --@@@@@@@@@@  ",
"  --@@......@@  ",
"    @@@@@@@@@@  ",
"    @@@@@@@@@@  ",
"                ",
"                "};
