/* XPM */
static const char * flcalc_xpm[] = {
"16 16 7 1",
" 	c None",
".	c #000000",
"-	c #940000",
"@	c #aaaaaa",
"#	c #FFFFFF",
"%  c #3fdabf",
"*  c #bfffbf",
"                ",
"     ------     ",
"   ----------   ",
"  --@@@@@@@@--  ",
" ---@******@--  ",
" ---@@@@@@@@--- ",
" ---@-@....@--- ",
" ---@#@#@#@@--- ",
" ---@@@@@@@@--- ",
" ---@###@%%@--- ",
" ---@###@%%@--- ",
" ---@###@%%@--- ",
"  --@@@@@@@@--  ",
"   ----------   ",
"     ------     ",
"                "};