/* XPM */
static const char * color_date_xpm[] = {
"16 16 4 1",
" 	c None",
".	c #d30008",
"@	c #e8e7e7",
"+	c #8e0005",
"                ",
" .............  ",
"............... ",
"............... ",
".@.@.@.@.@.@.@. ",
"............... ",
".@.@.@.@.@.@.@. ",
"............... ",
".@.@.@.@.@.@.@. ",
"............... ",
".@.@.@.@.@.@.@. ",
"............... ",
".@.@.@.@.@.@.@. ",
"+.............+ ",
"+++++++++++++++ ",
" +++++++++++++  "};
