/* XPM */
static const char * flimage_xpm[] = {
"16 16 4 1",
" 	c None",
".	c #000000",
"-	c #940000",
"@	c #FFFFFF",
"                ",
"     ------     ",
"   ----------   ",
"  --@@@@@@@@--  ",
" ---@......@--  ",
" ---@......@--- ",
" ---@......@--- ",
" ---@......@--- ",
" ---@......@--- ",
" ---@......@--- ",
" ---@@@@@@@@--- ",
" ---@@@@@@@@--- ",
"  --@@@@@@@@--  ",
"   ----------   ",
"     ------     ",
"                "};
