/* XPM */
static const char * lock_xpm[] = {
"32 32 3 1",
" 	c None",
".	c #969595",
"+	c #2D2D2D",
"            .+++++++.           ",
"          .++++++++++.          ",
"         .++++++++++++.         ",
"        .++++++++++++++.        ",
"       .++++++.  .++++++.       ",
"       .+++++.    .+++++.       ",
"       ++++++.    .++++++       ",
"       ++++++.    .++++++       ",
"       .+++++.    .+++++.       ",
"       .++++++.  .++++++.       ",
"        .++++++..++++++.        ",
"         .++++++++++++.         ",
"          .++++++++++.          ",
"           .++++++++.           ",
"            .++++++.            ",
"            .++++++             ",
"            .++++++             ",
"         ++++++++++             ",
"        +++++++++++             ",
"        +++++++++++             ",
"        +++++++++++             ",
"         ++++++++++             ",
"            +++++++             ",
"            +++++++             ",
"         ++++++++++             ",
"        +++++++++++             ",
"        +++++++++++             ",
"         ++++++++++             ",
"            +++++++             ",
"             ++++++             ",
"             .++++.             ",
"              ++++              "};
