/* XPM */
static const char * system_hibernate_xpm[] = {
"32 32 3 1",
" 	c None",
".	c #645137",
"+	c #FFFFFF",
"                                ",
"           ..........           ",
"         ..............         ",
"       ..................       ",
"      ....................      ",
"     ......................     ",
"    ........................    ",
"   ..........................   ",
"   ............++............   ",
"  ............++++............  ",
"  ........+++.++++.+++........  ",
" .........++++++++++++......... ",
" .........++++++++++++......... ",
" ..........++++++++++.......... ",
" ........++++++++++++++........ ",
" .......++++++++++++++++....... ",
" .......++++++++++++++++....... ",
" ........++++++++++++++........ ",
" ..........++++++++++.......... ",
" .........++++++++++++......... ",
" .........++++++++++++......... ",
"  ........+++.++++.+++........  ",
"  ............++++............  ",
"   ............++............   ",
"   ..........................   ",
"    ........................    ",
"     ......................     ",
"      ....................      ",
"       ..................       ",
"         ..............         ",
"           ..........           ",
"                                "};
