/* XPM */
static const char * system_shutdown_xpm[] = {
"32 32 3 1",
" 	c None",
".	c #FF0000",
"+	c #FFFFFF",
"            ........            ",
"         ..............         ",
"       ..................       ",
"      ....................      ",
"     .........++++.........     ",
"    .......+..++++..+.......    ",
"   ......+++..++++..+++......   ",
"  ......++++..++++..++++.....   ",
"  .....+++++..++++..+++++.....  ",
" .....+++++...++++...+++++..... ",
" .....++++....++++....++++..... ",
" ....++++.....++++.....++++.... ",
".....++++.....++++.....++++.....",
".....+++......++++......+++.....",
"....++++......++++......++++....",
"....++++......++++......++++....",
"....++++................++++....",
"....++++................++++....",
".....+++................+++.....",
".....++++..............++++.....",
" ....++++..............++++.... ",
" .....++++............++++..... ",
" .....+++++..........+++++..... ",
"  .....++++++......++++++.....  ",
"  ......++++++++++++++++......  ",
"   ......++++++++++++++......   ",
"    .......++++++++++.......    ",
"     .........++++.........     ",
"      ....................      ",
"       ..................       ",
"         ..............         ",
"            ........            "};
