/* XPM */
static char * system_restart_xpm[] = {
"32 32 3 1",
" 	c None",
".	c #859900",
"+	c #FFFFFF",
"            ........            ",
"         ..............         ",
"       ..................       ",
"      ....................      ",
"     ......................     ",
"    ........................    ",
"   .........++++++++.........   ",
"  ........++++++++++++........  ",
"  .......++++++++++++++.......  ",
" .......++++++++++++++++....... ",
" ......++++++......++++++...... ",
" .....+++++..........+++++++... ",
"......++++............++++++....",
"........++...........+++++++....",
"....................+++++++.....",
".....+++..............+++++.....",
".....+++++..............+++.....",
".....+++++++....................",
"....+++++++...........+.........",
"....++++++............++++......",
" ...+.+++++..........+++++..... ",
" ......++++++......++++++...... ",
" .......++++++++++++++++....... ",
"  .......++++++++++++++.......  ",
"  ........++++++++++++........  ",
"   .........++++++++.........   ",
"    ........................    ",
"     ......................     ",
"      ....................      ",
"       ..................       ",
"         ..............         ",
"            ........            "};
