/* XPM */
static const char * system_suspend[] = {
"32 32 3 1",
" 	c None",
".	c #FFBC2E",
"+	c #000000",
"                                ",
"           ..........           ",
"         ..............         ",
"       ..................       ",
"      ....................      ",
"     ......................     ",
"    ........................    ",
"   ..........................   ",
"   ..........................   ",
"  ............................  ",
"  ............................  ",
" ............++++++...........+ ",
" ..........++++++++++.......... ",
" ........++++......++++........ ",
" .......+++..........+++....... ",
" ......+++............+++...... ",
" .......+++..........++++...... ",
" ......++++++++++++++++++...... ",
" ......++..+++++++++++..+...... ",
" .........++...++...++......... ",
" ..............++.............+ ",
"  ............................  ",
"  ...........................+  ",
"   ..........................   ",
"   .........................+   ",
"    ........................    ",
"     ......................     ",
"      ....................      ",
"       .................+       ",
"         .............+         ",
"           +........+           ",
"                                "};
